<svg width="172" height="45" viewBox="0 0 172 45" fill="none" xmlns="http://www.w3.org/2000/svg">
<path d="M21.5087 6.21497C22.5482 6.01766 23.5914 5.97203 24.6249 6.01477C28.3798 6.17044 31.7068 7.46521 34.6014 9.85168H34.6024C34.6822 9.91765 34.7719 10.0083 34.8173 10.0529C35.7361 10.8106 36.5284 11.6782 37.2303 12.6154L37.5272 13.0236L37.7821 13.3947C39.0318 15.2629 39.8725 17.3092 40.2938 19.5314L40.3192 19.7736C40.4652 20.4424 40.5372 21.1186 40.5389 21.8019C40.6202 23.4437 40.4931 25.0881 40.0087 26.6906C38.1048 32.9872 33.9532 37.0955 27.5214 38.5792H27.5204C19.4701 40.4356 12.0532 35.952 8.9696 29.1954C7.60743 26.2104 7.18345 23.0831 7.73425 19.8634C8.52465 15.2443 10.8897 11.6007 14.6825 8.9386L15.0546 8.68372C16.9413 7.42132 19.0232 6.65742 21.2225 6.24231H21.2235C21.3232 6.22386 21.4576 6.21778 21.5087 6.21497ZM33.1005 11.5275C30.2087 9.17554 26.9278 8.06031 23.204 8.25793L23.205 8.25891C22.6139 8.29076 22.0399 8.38394 21.4178 8.4718L21.2538 8.68079L21.0126 8.55969C18.4005 9.14598 16.1235 10.3686 14.204 12.2218C11.3407 14.986 9.7909 18.3471 9.71765 22.3322C9.65927 25.5324 10.6531 28.4208 12.6268 30.9288C14.5532 33.377 16.7555 35.074 19.2118 35.9816C21.666 36.8883 24.4086 37.0195 27.4384 36.2823C32.8336 34.9689 36.229 31.3802 37.8817 26.0597C38.127 25.2711 38.2436 24.4477 38.3407 23.587L38.1698 23.3429L38.3641 23.1896C38.3815 22.3644 38.3633 21.5515 38.2645 20.7452C37.9842 18.4494 37.1081 16.3833 35.8114 14.4835L35.5458 14.1056C34.8543 13.1461 34.0302 12.2835 33.1005 11.5275Z" fill="white" stroke="#84CC16"/>
<path d="M36.4876 22.3248C32.4041 18.2733 28.3183 14.224 24.2387 10.1685C24.0814 10.0124 24.0039 9.98544 23.8298 10.1595C20.8459 13.1412 17.8542 16.115 14.8636 19.0904C13.7836 20.1648 12.7019 21.2381 11.6208 22.3119C11.4921 22.3933 11.3866 22.4781 11.5747 22.6084C11.7404 22.7662 11.9061 22.9235 12.0717 23.0813C12.147 23.1633 12.2189 23.2487 12.2975 23.3273C16.1289 27.1384 19.9631 30.9479 23.7894 34.7652C23.9781 34.9534 24.0691 34.991 24.2808 34.7787C26.4722 32.5805 28.6788 30.397 30.8787 28.2066C31.7857 27.3036 32.6854 26.3937 33.5885 25.4867C34.5759 24.5179 35.5615 23.5474 36.5522 22.5826C36.6977 22.4405 36.5556 22.3927 36.4876 22.3248ZM24.6436 32.4823V29.9022C24.6425 28.9761 24.6425 28.0494 24.6414 27.1233V27.1025C24.6408 26.6234 24.6408 26.1449 24.6397 25.6664V25.6462C24.6391 25.1144 24.6385 24.5825 24.6374 24.0507V24.045C24.6374 23.8311 24.6369 23.6176 24.6363 23.4037V23.3806C24.6363 23.2397 24.6425 23.1549 24.8463 23.1554C26.8418 23.1616 28.8372 23.1627 30.8321 23.1633H30.8489C31.8402 23.1633 32.8315 23.1633 33.8227 23.1639C33.8575 23.1639 33.8924 23.17 33.9901 23.1785C30.8894 26.3089 27.7994 29.3799 24.6436 32.4823ZM24.6459 12.5582C24.7705 12.5958 24.8362 12.6874 24.9115 12.761C25.9342 13.7629 26.9552 14.7671 27.9774 15.7696C28.0437 15.8347 28.1155 15.8937 28.1846 15.9555C28.2178 15.988 28.2509 16.02 28.284 16.0521C28.4037 16.2026 28.5379 16.339 28.6923 16.4542C28.7109 16.5036 28.7446 16.5379 28.7945 16.5553C28.8198 16.612 28.8603 16.653 28.9175 16.6766C29.3758 17.1416 29.8296 17.6106 30.2924 18.0711C31.2915 19.064 32.2951 20.053 33.2965 21.0432C33.3184 21.0993 33.3571 21.1392 33.4133 21.1611C33.4318 21.2139 33.4672 21.2499 33.52 21.2684C33.5419 21.3251 33.5807 21.3644 33.6374 21.3863C33.6565 21.4386 33.6919 21.4739 33.7441 21.493C33.8059 21.5711 33.8677 21.6486 33.9283 21.725C33.8688 21.7997 33.798 21.7677 33.7385 21.7677C30.8096 21.7682 27.8802 21.7643 24.9514 21.7705C24.72 21.771 24.6357 21.7385 24.6369 21.4734C24.6414 19.9896 24.6419 18.5052 24.6408 17.0214V17.0057C24.6447 16.8018 24.6492 16.6002 24.6593 16.3963C24.6683 16.2059 24.6537 16.0133 24.6402 15.8201V15.8049C24.6391 14.7744 24.6374 13.7444 24.6369 12.7138C24.6369 12.6689 24.6419 12.6234 24.6459 12.5582ZM23.3058 12.6621C23.3406 12.7267 23.353 12.8008 23.3496 12.8896C23.3479 12.9328 23.3451 12.9912 23.3592 13.0362V13.6601C23.3171 13.7286 23.3491 13.8269 23.3491 13.9011C23.3429 16.4463 23.344 18.9916 23.344 21.5368C23.344 21.5784 23.3463 21.6194 23.3513 21.6587C23.3339 21.7306 23.2834 21.7733 23.1379 21.7727C20.2107 21.7637 17.2836 21.7665 14.3558 21.7665H14.143C17.2005 18.6962 20.2141 15.6853 23.3058 12.6621ZM23.3603 32.2801C23.3603 32.3048 23.3519 32.3289 23.339 32.4036C20.2253 29.3546 17.1769 26.2915 14.0902 23.161H15.7167C18.1765 23.161 20.637 23.1622 23.0975 23.1594C23.2626 23.1594 23.367 23.1526 23.3665 23.3834C23.3575 26.3488 23.3609 29.3142 23.3603 32.2801Z" fill="white"/>
<path d="M19.58 32.0403C18.9724 32.0425 18.3641 32.0464 17.7565 32.033C15.9042 31.9908 14.5743 30.6469 14.5513 28.7975C14.544 28.1898 14.549 27.5821 14.5468 26.9739C14.5468 26.8829 14.5648 26.7863 14.4873 26.7105C14.129 26.3612 13.7723 26.0113 13.373 25.6204C13.4224 26.8037 13.3449 27.9258 13.4202 29.0474C13.5769 31.3731 15.3263 33.0939 17.6537 33.1663C18.7095 33.1989 19.7671 33.1759 20.824 33.177C20.8656 33.177 20.9189 33.1927 20.9459 33.1242C20.61 32.8069 20.2691 32.4896 19.9344 32.1655C19.8316 32.0655 19.7182 32.0397 19.58 32.0403Z" fill="#84CC16"/>
<path d="M28.5154 12.9643C29.1051 12.9575 29.6943 12.9547 30.2834 12.9665C31.9671 12.9991 33.3611 14.2616 33.5442 15.9369C33.6172 16.6069 33.5576 17.2831 33.5678 17.956C33.5689 18.0481 33.5369 18.1497 33.6003 18.2289C33.9328 18.6389 34.3203 18.9938 34.7185 19.3521C34.7039 18.116 34.8303 16.8911 34.6455 15.6763C34.3473 13.7118 32.8214 12.1454 30.9433 11.8978C29.6898 11.7321 28.4267 11.873 27.1681 11.8202C27.491 12.1623 27.7977 12.4779 28.0931 12.8031C28.2121 12.9339 28.3464 12.9665 28.5154 12.9643Z" fill="#84CC16"/>
<path d="M14.4002 18.3261C14.5131 18.2098 14.5485 18.0834 14.5457 17.9239C14.5361 17.391 14.5356 16.858 14.5395 16.325C14.5547 14.4133 15.9492 13.0013 17.8626 12.966C18.4422 12.9558 19.0218 12.9676 19.6014 12.9671C19.6845 12.9671 19.8002 12.9873 19.8457 12.9429C20.2107 12.5807 20.5629 12.2061 20.9111 11.8422C19.8086 11.8422 18.6949 11.795 17.5863 11.8523C15.3915 11.9663 13.6583 13.6579 13.4303 15.8459C13.3101 17.0023 13.409 18.1626 13.4252 19.3555C13.7499 19.0118 14.0711 18.6653 14.4002 18.3261Z" fill="#84CC16"/>
<path d="M34.7118 27.5232C34.7213 26.9031 34.714 26.2831 34.714 25.5929C34.358 25.9596 34.0232 26.25 33.7424 26.5948C33.5801 26.6925 33.5414 26.8397 33.5408 27.0228C33.5397 27.7804 33.6127 28.5436 33.5099 29.2945C33.2976 30.8463 32.0373 31.965 30.4552 32.0302C29.792 32.0577 29.127 32.0358 28.4626 32.0369C28.3615 32.0375 28.2599 32.0195 28.1751 32.1077C27.8353 32.4598 27.491 32.808 27.1164 33.1905C28.3868 33.159 29.619 33.2388 30.8495 33.1365C31.0163 33.1231 31.1831 33.0882 31.3465 33.0512C33.1825 32.6328 34.6343 30.9153 34.6562 29.1389C34.6668 29.1131 34.6781 29.0884 34.6781 29.0592V29.012C34.7539 28.5178 34.7045 28.0191 34.7118 27.5232Z" fill="#84CC16"/>
<path d="M154.876 30.3537V13.9634H158.621V16.6951H158.792C159.09 15.749 159.603 15.0198 160.328 14.5076C161.061 13.9883 161.897 13.7287 162.836 13.7287C163.049 13.7287 163.288 13.7394 163.551 13.7607C163.821 13.7749 164.045 13.7998 164.223 13.8354V17.3887C164.059 17.3318 163.8 17.282 163.444 17.2394C163.096 17.1896 162.758 17.1647 162.43 17.1647C161.726 17.1647 161.093 17.3176 160.531 17.6235C159.976 17.9223 159.539 18.3384 159.219 18.872C158.898 19.4055 158.738 20.0209 158.738 20.718V30.3537H154.876Z" fill="#84CC16"/>
<path d="M144.92 30.6738C143.277 30.6738 141.858 30.3323 140.663 29.6494C139.475 28.9594 138.561 27.9848 137.92 26.7256C137.28 25.4594 136.96 23.969 136.96 22.2546C136.96 20.5686 137.28 19.0889 137.92 17.8156C138.568 16.5351 139.471 15.5392 140.631 14.8278C141.79 14.1093 143.153 13.75 144.718 13.75C145.728 13.75 146.681 13.9136 147.577 14.2409C148.481 14.561 149.278 15.059 149.968 15.7348C150.665 16.4106 151.213 17.2714 151.611 18.3171C152.009 19.3557 152.209 20.5935 152.209 22.0305V23.215H138.774V20.6113H148.506C148.499 19.8715 148.339 19.2134 148.026 18.6372C147.713 18.0539 147.275 17.595 146.713 17.2607C146.158 16.9263 145.511 16.7592 144.771 16.7592C143.981 16.7592 143.288 16.9512 142.69 17.3354C142.093 17.7124 141.627 18.2104 141.292 18.8293C140.965 19.4411 140.798 20.1133 140.791 20.8461V23.1189C140.791 24.0722 140.965 24.8903 141.314 25.5732C141.662 26.249 142.15 26.7683 142.776 27.1311C143.402 27.4868 144.134 27.6647 144.974 27.6647C145.536 27.6647 146.044 27.5864 146.5 27.4299C146.955 27.2663 147.35 27.028 147.684 26.715C148.019 26.402 148.271 26.0143 148.442 25.5519L152.049 25.9573C151.821 26.9106 151.387 27.7429 150.747 28.4543C150.114 29.1586 149.303 29.7063 148.314 30.0976C147.325 30.4817 146.194 30.6738 144.92 30.6738Z" fill="#84CC16"/>
<path d="M131.93 30.5884C131.282 30.5884 130.727 30.3608 130.265 29.9055C129.803 29.4502 129.575 28.8954 129.582 28.2409C129.575 27.6006 129.803 27.0529 130.265 26.5976C130.727 26.1423 131.282 25.9147 131.93 25.9147C132.556 25.9147 133.1 26.1423 133.562 26.5976C134.032 27.0529 134.27 27.6006 134.277 28.2409C134.27 28.6748 134.156 29.0696 133.936 29.4253C133.722 29.781 133.438 30.0656 133.082 30.279C132.733 30.4853 132.349 30.5884 131.93 30.5884Z" fill="#EF4444"/>
<path d="M120.611 14.25C121.67 14.2501 122.567 14.4762 123.318 14.9092L123.319 14.9102C124.076 15.3424 124.663 15.9679 125.084 16.8027L125.086 16.8057C125.51 17.6354 125.73 18.6653 125.724 19.915V29.8535H122.861V20.5156C122.861 19.4079 122.591 18.4663 121.999 17.7461L121.876 17.6055C121.201 16.8637 120.278 16.5156 119.171 16.5156C118.42 16.5156 117.732 16.682 117.122 17.0273C116.516 17.3682 116.041 17.8629 115.699 18.4961L115.697 18.501C115.36 19.1435 115.203 19.8998 115.203 20.75V29.8535H112.34V14.4639H115.032V17.248H116.059L116.187 16.9385C116.526 16.1137 117.06 15.4635 117.801 14.9785C118.535 14.5022 119.463 14.25 120.611 14.25Z" fill="white" stroke="#84CC16"/>
<path d="M102.901 14.25C103.96 14.2501 104.857 14.4762 105.608 14.9092L105.609 14.9102C106.366 15.3424 106.953 15.9679 107.374 16.8027L107.376 16.8057C107.8 17.6354 108.02 18.6653 108.014 19.915V29.8535H105.151V20.5156C105.151 19.4079 104.881 18.4662 104.289 17.7461L104.166 17.6055C103.491 16.8637 102.568 16.5156 101.461 16.5156C100.709 16.5156 100.022 16.6818 99.4122 17.0273C98.8056 17.3682 98.3313 17.863 97.9904 18.4961L97.9874 18.501C97.6497 19.1437 97.4933 19.9001 97.4933 20.75V29.8535H94.63V14.4639H97.3224V17.248H98.3497L98.4767 16.9385C98.8155 16.1136 99.3507 15.4636 100.091 14.9785C100.825 14.5023 101.753 14.25 102.901 14.25Z" fill="white" stroke="#84CC16"/>
<path d="M84.1886 14.25C84.9387 14.25 85.6862 14.3374 86.4317 14.5137C87.1592 14.6856 87.8195 14.969 88.4161 15.3623L88.419 15.3643C88.9911 15.7353 89.4554 16.2435 89.8097 16.9004L89.8106 16.9033C90.1577 17.5355 90.3467 18.3541 90.3468 19.3838V29.8535H87.6339V27.6025H86.7003L86.5606 27.873C86.3811 28.221 86.1343 28.5571 85.8136 28.8799L85.672 29.0166C85.3087 29.3553 84.8386 29.6403 84.2491 29.8633C83.6841 30.0728 83.0018 30.1846 82.1925 30.1846C81.3367 30.1845 80.5678 30.0514 79.88 29.792L79.5899 29.6729C78.8491 29.3335 78.2694 28.84 77.8399 28.1895C77.4284 27.5551 77.2081 26.7527 77.2081 25.7549C77.2081 24.8887 77.3681 24.2149 77.6554 23.7061C77.9177 23.2415 78.2617 22.8608 78.6905 22.5596L78.88 22.4355C79.4226 22.1021 80.0395 21.8467 80.7345 21.6729L80.7384 21.6719C81.4611 21.4861 82.209 21.3514 82.9825 21.2686L82.9815 21.2676C83.9436 21.1678 84.7274 21.0791 85.3311 21H85.337C85.9531 20.9119 86.4731 20.7715 86.8351 20.543L86.838 20.541C87.278 20.2587 87.4845 19.8144 87.4845 19.2988V19.2344C87.4844 18.3268 87.2107 17.5573 86.6085 17C86.0094 16.4457 85.1836 16.2061 84.2101 16.2061C83.1953 16.2061 82.3271 16.4272 81.6593 16.9238L81.6573 16.9258C81.165 17.2967 80.7873 17.7337 80.5382 18.2373L77.9073 17.8633C78.1713 17.183 78.5389 16.6061 79.0079 16.127L79.0089 16.125C79.6061 15.5084 80.3397 15.0438 81.2179 14.7334L81.5577 14.6201C82.3544 14.375 83.2303 14.25 84.1886 14.25ZM86.6768 22.1572C86.6368 22.1901 86.5112 22.2592 86.2354 22.3398L86.2325 22.3408C85.9696 22.4197 85.6679 22.4904 85.3272 22.5518C84.9774 22.6148 84.6306 22.6708 84.2882 22.7197C83.9402 22.7694 83.6383 22.8122 83.3829 22.8477C82.7754 22.9303 82.2207 23.0672 81.7227 23.2617C81.2022 23.465 80.767 23.7593 80.4405 24.1562C80.0885 24.5771 79.9318 25.1033 79.9317 25.6904C79.9317 26.5418 80.2537 27.243 80.9249 27.7119C81.5482 28.1474 82.3178 28.3457 83.1964 28.3457C84.0379 28.3456 84.7944 28.1792 85.4493 27.8271L85.4532 27.8252C86.0916 27.4741 86.596 27.0024 86.9513 26.4092L86.9522 26.4102C87.3135 25.8189 87.4942 25.1696 87.4942 24.4736V21.4834L86.6768 22.1572Z" fill="white" stroke="#84CC16"/>
<path d="M73.6057 9.00003V29.8535H70.7424V9.00003H73.6057Z" fill="white" stroke="#84CC16"/>
<path d="M60.7699 14.25C61.9461 14.25 62.9943 14.5489 63.9272 15.1426L63.9301 15.1455C64.8616 15.7277 65.6141 16.5978 66.1772 17.7842L66.1781 17.7871C66.7415 18.9538 67.0355 20.4116 67.0356 22.1797C67.0356 23.9268 66.7481 25.3795 66.1967 26.5557C65.64 27.743 64.8935 28.6268 63.9652 29.2305C63.0342 29.8359 61.9775 30.1416 60.7807 30.1416C59.8938 30.1416 59.198 29.9939 58.6693 29.7266C58.0982 29.4377 57.656 29.0978 57.3295 28.7158C56.9789 28.2902 56.7147 27.8982 56.5297 27.541L56.39 27.2715H55.4262V36H52.5629V14.4639H55.3617V17.1738H56.3949L56.5326 16.8975C56.7117 16.5393 56.9714 16.1466 57.3178 15.7188L57.3197 15.7158C57.6309 15.3253 58.0628 14.9786 58.6313 14.6846L58.6352 14.6826C59.1602 14.405 59.8625 14.25 60.7699 14.25ZM59.7035 16.4189C58.9009 16.4189 58.1798 16.6052 57.56 16.9922L57.3002 17.1709C56.6375 17.6701 56.1485 18.3609 55.8217 19.2168L55.8197 19.2207C55.5027 20.0717 55.351 21.0543 55.351 22.1582C55.351 23.2639 55.5071 24.2544 55.8315 25.1191L55.8324 25.123C56.1648 25.9887 56.6506 26.691 57.3022 27.2041L57.308 27.208C57.9824 27.7243 58.7904 27.9727 59.7035 27.9727C60.6504 27.9726 61.4794 27.7175 62.1576 27.1816L62.1606 27.1797C62.8179 26.6522 63.3003 25.9417 63.6186 25.0723C63.941 24.2037 64.0981 23.2298 64.0981 22.1582C64.098 21.094 63.945 20.1305 63.6293 19.2754C63.3104 18.4121 62.826 17.711 62.1654 17.1973C61.4865 16.6692 60.6546 16.419 59.7035 16.4189Z" fill="white" stroke="#84CC16"/>
</svg>
